<?xml version="1.0" encoding="utf-8"?>
<!-- Generator: Adobe Illustrator 23.1.0, SVG Export Plug-In . SVG Version: 6.00 Build 0)  -->
<svg version="1.1"
	xmlns="http://www.w3.org/2000/svg"
	xmlns:xlink="http://www.w3.org/1999/xlink" x="0px" y="0px" viewBox="0 0 750 500" style="enable-background:new 0 0 750 500;" xml:space="preserve">
	<style type="text/css">
	.st0{fill:#304057;}
	.st1{fill:#334257;}
	.st2{fill:#8390AA;}
	.st3{fill:#D2DDFC;}
	.st4{fill:#00519A;}
	.st5{fill:#6B89C6;}
	.st6{fill:#224577;}
	.st7{fill:#B8C9FF;}
	.st8{fill:#12355E;}
	.st9{fill:#132F5B;}
	.st10{fill:#FFBC41;}
	.st11{fill:#9DB3EA;}
	.st12{fill:#EBF3FF;}
	.st13{fill:#24426D;}
	.st14{fill:#E6EDFC;}
	.st15{fill:#FF504B;}
	.st16{fill:none;stroke:#6B89C6;stroke-width:3;stroke-miterlimit:10;}
	.st17{fill:#FF8F0A;}
	.st18{fill:#0C2344;}
	.st19{fill:#FFA067;}
	.st20{fill:#DD8457;}
	.st21{fill:#044372;}
	.st22{fill:#1C3E66;}
	.st23{fill:#4D82C1;}
	.st24{fill:none;stroke:#224577;stroke-width:4;stroke-linecap:round;stroke-miterlimit:10;}
	</style>
	<g id="BACKGROUND">
		<rect id="XMLID_391_" class="st0" width="750" height="500"/>
	</g>
	<g id="OBJECT">
		<g>
			<polygon id="XMLID_525_" class="st1" points="750,500 562.5,500 375,500 0,500 0,459.94 0,439.92 0,419.89 375,419.89 
			562.5,419.89 750,419.89 750,439.92 750,459.94 		"/>
			<g>
				<path class="st2" d="M414.02,324.26c0.53,0,43.08,0.43,43.08,0.96l51.63,1.86l9.89,0.36h64c0.28,0,22.62,0.12,22.8,0.31
				c0.08,0.09,0.14,10.2,0.19,10.31c0.04,0.11,0.07,10.25,0.07,10.37c0,0.25-0.1,20.51-0.26,20.68c-0.18,0.19-22.51,0.31-22.79,0.31
				h-64l-9.9,0.36l-51.64,1.86c0,0.53-42.55,0.96-43.08,0.96c-0.53,0-43.06-0.43-43.06-0.96l-61.52-2.22h-64.02
				c-0.28,0-22.63-0.12-22.81-0.31c-0.16-0.17-0.26-20.43-0.26-20.68c0-0.13,0.02-10.26,0.07-10.37c0.04-0.11,0.11-10.23,0.19-10.31
				c0.18-0.19,22.47-0.31,22.75-0.31h64.01l61.56-2.22C370.94,324.69,413.49,324.26,414.02,324.26z"/>
				<path id="XMLID_537_" class="st3" d="M47.15,382.9h-2.51v-2.51c0-0.6-0.49-1.09-1.09-1.09c-0.6,0-1.09,0.49-1.09,1.09v2.51h-2.51
				c-0.6,0-1.09,0.49-1.09,1.09c0,0.6,0.49,1.09,1.09,1.09h2.51v2.51c0,0.6,0.49,1.09,1.09,1.09c0.6,0,1.09-0.49,1.09-1.09v-2.51
				h2.51c0.6,0,1.09-0.49,1.09-1.09C48.24,383.38,47.75,382.9,47.15,382.9z"/>
				<path id="XMLID_536_" class="st3" d="M23.61,288.65h-2.51v-2.51c0-0.6-0.49-1.09-1.09-1.09c-0.6,0-1.09,0.49-1.09,1.09v2.51
				h-2.51c-0.6,0-1.09,0.49-1.09,1.09c0,0.6,0.49,1.09,1.09,1.09h2.51v2.51c0,0.6,0.49,1.09,1.09,1.09c0.6,0,1.09-0.49,1.09-1.09
				v-2.51h2.51c0.6,0,1.09-0.49,1.09-1.09C24.7,289.14,24.21,288.65,23.61,288.65z"/>
				<path id="XMLID_535_" class="st3" d="M596.02,242.6h-2.51v-2.51c0-0.6-0.49-1.09-1.09-1.09s-1.09,0.49-1.09,1.09v2.51h-2.51
				c-0.6,0-1.09,0.49-1.09,1.09c0,0.6,0.49,1.09,1.09,1.09h2.51v2.51c0,0.6,0.49,1.09,1.09,1.09s1.09-0.49,1.09-1.09v-2.51h2.51
				c0.6,0,1.09-0.49,1.09-1.09C597.12,243.09,596.63,242.6,596.02,242.6z"/>
				<path id="XMLID_534_" class="st3" d="M572.32,396.85h-1.98v-1.97c0-0.47-0.39-0.86-0.86-0.86c-0.48,0-0.86,0.38-0.86,0.86v1.97
				h-1.98c-0.48,0-0.86,0.38-0.86,0.86c0,0.47,0.39,0.86,0.86,0.86h1.98v1.97c0,0.47,0.39,0.86,0.86,0.86
				c0.48,0,0.86-0.38,0.86-0.86v-1.97h1.98c0.48,0,0.86-0.38,0.86-0.86C573.18,397.24,572.8,396.85,572.32,396.85z"/>
				<path id="XMLID_533_" class="st3" d="M284.59,319.92h-2.23v-2.22c0-0.53-0.43-0.96-0.97-0.96s-0.97,0.43-0.97,0.96v2.22h-2.23
				c-0.53,0-0.97,0.43-0.97,0.96c0,0.53,0.43,0.96,0.97,0.96h2.23v2.22c0,0.53,0.43,0.96,0.97,0.96s0.97-0.43,0.97-0.96v-2.22h2.23
				c0.53,0,0.97-0.43,0.97-0.96C285.56,320.36,285.13,319.92,284.59,319.92z"/>
				<path id="XMLID_532_" class="st3" d="M673.73,415.43h-2.23v-2.22c0-0.53-0.43-0.96-0.97-0.96c-0.53,0-0.97,0.43-0.97,0.96v2.22
				h-2.23c-0.53,0-0.97,0.43-0.97,0.96s0.43,0.96,0.97,0.96h2.23v2.22c0,0.53,0.43,0.96,0.97,0.96c0.53,0,0.97-0.43,0.97-0.96v-2.22
				h2.23c0.53,0,0.97-0.43,0.97-0.96S674.27,415.43,673.73,415.43z"/>
				<path id="XMLID_531_" class="st3" d="M275.69,380.99c0,1.98-1.61,3.59-3.6,3.59c-1.99,0-3.6-1.61-3.6-3.59s1.61-3.59,3.6-3.59
				C274.08,377.41,275.69,379.01,275.69,380.99z"/>
				<path id="XMLID_530_" class="st3" d="M64.31,331.67c0,1.58-1.29,2.87-2.88,2.87c-1.59,0-2.88-1.28-2.88-2.87
				c0-1.58,1.29-2.87,2.88-2.87C63.02,328.8,64.31,330.09,64.31,331.67z"/>
				<path id="XMLID_529_" class="st3" d="M296.92,256.54c0,1.58-1.29,2.87-2.88,2.87c-1.59,0-2.88-1.28-2.88-2.87
				c0-1.58,1.29-2.87,2.88-2.87C295.63,253.67,296.92,254.96,296.92,256.54z"/>
				<path id="XMLID_528_" class="st3" d="M542.97,290.64c0,1.58-1.29,2.87-2.88,2.87s-2.88-1.28-2.88-2.87s1.29-2.87,2.88-2.87
				S542.97,289.06,542.97,290.64z"/>
				<path id="XMLID_527_" class="st3" d="M729.62,413.17c0,1.58-1.29,2.87-2.88,2.87c-1.59,0-2.88-1.28-2.88-2.87
				c0-1.58,1.29-2.87,2.88-2.87C728.33,410.3,729.62,411.58,729.62,413.17z"/>
				<path id="XMLID_526_" class="st3" d="M721.83,247.95c0,1.58-1.29,2.87-2.88,2.87s-2.88-1.28-2.88-2.87
				c0-1.58,1.29-2.87,2.88-2.87S721.83,246.36,721.83,247.95z"/>
			</g>
			<g id="XMLID_394_">
				<path id="XMLID_524_" class="st3" d="M461.4,235.14h-4.45v-4.44c0-1.07-0.87-1.93-1.94-1.93c-1.07,0-1.94,0.86-1.94,1.93v4.44
				h-4.45c-1.07,0-1.94,0.86-1.94,1.93c0,1.07,0.87,1.93,1.94,1.93h4.45v4.44c0,1.07,0.87,1.93,1.94,1.93
				c1.07,0,1.94-0.86,1.94-1.93V239h4.45c1.07,0,1.94-0.86,1.94-1.93C463.34,236,462.47,235.14,461.4,235.14z"/>
				<path id="XMLID_523_" class="st3" d="M61.68,282.36h-5.03v-5.01c0-1.2-0.98-2.18-2.19-2.18c-1.21,0-2.19,0.98-2.19,2.18v5.01
				h-5.03c-1.21,0-2.19,0.98-2.19,2.18c0,1.2,0.98,2.18,2.19,2.18h5.03v5.01c0,1.2,0.98,2.18,2.19,2.18c1.21,0,2.19-0.98,2.19-2.18
				v-5.01h5.03c1.21,0,2.19-0.98,2.19-2.18C63.86,283.33,62.89,282.36,61.68,282.36z"/>
				<path id="XMLID_522_" class="st3" d="M39.03,134.91H34v-5.01c0-1.2-0.98-2.18-2.19-2.18c-1.21,0-2.19,0.98-2.19,2.18v5.01H24.6
				c-1.21,0-2.19,0.98-2.19,2.18c0,1.2,0.98,2.18,2.19,2.18h5.03v5.01c0,1.2,0.98,2.18,2.19,2.18c1.21,0,2.19-0.98,2.19-2.18v-5.01
				h5.03c1.21,0,2.19-0.98,2.19-2.18C41.22,135.88,40.24,134.91,39.03,134.91z"/>
				<path id="XMLID_521_" class="st3" d="M589.67,62.85h-5.03v-5.01c0-1.2-0.98-2.18-2.19-2.18c-1.21,0-2.19,0.98-2.19,2.18v5.01
				h-5.03c-1.21,0-2.19,0.98-2.19,2.18c0,1.2,0.98,2.18,2.19,2.18h5.03v5.01c0,1.2,0.98,2.18,2.19,2.18c1.21,0,2.19-0.98,2.19-2.18
				v-5.01h5.03c1.21,0,2.19-0.98,2.19-2.18C591.85,63.83,590.87,62.85,589.67,62.85z"/>
				<path id="XMLID_520_" class="st3" d="M566.07,304.3h-3.96v-3.94c0-0.95-0.77-1.72-1.72-1.72c-0.95,0-1.72,0.77-1.72,1.72v3.94
				h-3.96c-0.95,0-1.72,0.77-1.72,1.72c0,0.95,0.77,1.72,1.72,1.72h3.96v3.94c0,0.95,0.77,1.72,1.72,1.72
				c0.95,0,1.72-0.77,1.72-1.72v-3.94h3.96c0.95,0,1.72-0.77,1.72-1.72C567.79,305.07,567.02,304.3,566.07,304.3z"/>
				<path id="XMLID_519_" class="st3" d="M289.66,183.89h-4.45v-4.43c0-1.06-0.87-1.93-1.94-1.93s-1.94,0.86-1.94,1.93v4.43h-4.45
				c-1.07,0-1.94,0.86-1.94,1.93c0,1.07,0.87,1.93,1.94,1.93h4.45v4.43c0,1.07,0.87,1.93,1.94,1.93s1.94-0.86,1.94-1.93v-4.43h4.45
				c1.07,0,1.94-0.86,1.94-1.93C291.59,184.75,290.73,183.89,289.66,183.89z"/>
				<path id="XMLID_518_" class="st3" d="M663.99,333.32h-4.45v-4.43c0-1.07-0.87-1.93-1.94-1.93c-1.07,0-1.94,0.86-1.94,1.93v4.43
				h-4.45c-1.07,0-1.94,0.86-1.94,1.93c0,1.07,0.87,1.93,1.94,1.93h4.45v4.44c0,1.07,0.87,1.93,1.94,1.93
				c1.07,0,1.94-0.86,1.94-1.93v-4.44h4.45c1.07,0,1.94-0.86,1.94-1.93C665.93,334.18,665.06,333.32,663.99,333.32z"/>
				<path id="XMLID_517_" class="st3" d="M281.52,279.86c0,3.96-3.22,7.17-7.2,7.17c-3.98,0-7.2-3.21-7.2-7.17s3.22-7.17,7.2-7.17
				C278.29,272.69,281.52,275.9,281.52,279.86z"/>
				<path id="XMLID_516_" class="st3" d="M77.43,202.69c0,3.17-2.58,5.74-5.76,5.74c-3.18,0-5.76-2.57-5.76-5.74
				c0-3.17,2.58-5.74,5.76-5.74C74.85,196.95,77.43,199.52,77.43,202.69z"/>
				<path id="XMLID_515_" class="st3" d="M301.18,85.14c0,3.17-2.58,5.74-5.76,5.74c-3.18,0-5.76-2.57-5.76-5.74
				c0-3.17,2.58-5.74,5.76-5.74C298.61,79.4,301.18,81.97,301.18,85.14z"/>
				<path id="XMLID_500_" class="st3" d="M537.88,138.49c0,3.17-2.58,5.74-5.76,5.74c-3.18,0-5.76-2.57-5.76-5.74
				c0-3.17,2.58-5.74,5.76-5.74C535.3,132.76,537.88,135.33,537.88,138.49z"/>
				<path id="XMLID_488_" class="st3" d="M717.43,330.2c0,3.17-2.58,5.74-5.76,5.74c-3.18,0-5.76-2.57-5.76-5.74
				c0-3.17,2.58-5.74,5.76-5.74C714.85,324.46,717.43,327.03,717.43,330.2z"/>
				<path id="XMLID_484_" class="st3" d="M709.93,71.69c0,3.17-2.58,5.74-5.76,5.74c-3.18,0-5.76-2.57-5.76-5.74
				c0-3.17,2.58-5.74,5.76-5.74C707.35,65.95,709.93,68.52,709.93,71.69z"/>
			</g>
		</g>
		<g id="XMLID_191_">
			<polygon id="XMLID_514_" class="st4" points="602.78,374.64 602.14,499.99 276.01,499.99 189.25,431.8 		"/>
			<polygon id="XMLID_513_" class="st5" points="629.18,351.48 630,365.35 512.2,444.09 131.66,433.73 127.56,422.31 		"/>
			<polygon id="XMLID_512_" class="st6" points="513.77,499.19 514.18,442.51 195.68,432.53 282.64,499.59 		"/>
			<polygon id="XMLID_511_" class="st7" points="629.11,352.16 512.2,430.42 127.56,422.31 237.29,348.9 		"/>
			<g id="XMLID_503_">
				<polygon id="XMLID_406_" class="st8" points="271.01,354.55 355.29,354.55 357.4,357.19 342.98,382.85 263.44,382.85 			"/>
				<polygon id="XMLID_407_" class="st6" points="267.41,354.55 355.29,354.55 339.38,382.85 259.84,382.85 			"/>
				<polygon id="XMLID_186_" class="st8" points="270.82,357.38 345.82,357.38 343.55,361.72 270.25,362.09 			"/>
				<polygon id="XMLID_187_" class="st8" points="266.85,364.73 341.84,364.73 339.57,369.07 266.28,369.45 			"/>
				<polygon id="XMLID_188_" class="st8" points="262.87,371.9 337.86,371.9 335.59,376.24 262.3,376.62 			"/>
			</g>
		</g>
		<g id="XMLID_501_">
			<path id="XMLID_393_" class="st9" d="M467.83,370.6h-49.55c0.91-7.01,0.81-13.04,0.13-18.14c-1.42-10.9-5.43-17.6-7.7-20.62
			c-0.95-1.29-1.61-1.91-1.61-1.91h48.17C468.75,345.01,467.83,370.6,467.83,370.6z"/>
			<path id="XMLID_395_" class="st6" d="M461.18,370.6h-49.55c0.91-7.01,0.81-13.04,0.13-18.14c-1.42-10.9-5.43-17.6-7.7-20.62
			c-0.95-1.29-1.61-1.91-1.61-1.91h48.17C462.1,345.01,461.18,370.6,461.18,370.6z"/>
			<path id="XMLID_396_" class="st9" d="M520.97,330.84h-188.4c-5.91,0-10.7-4.79-10.7-10.7V212.36c0-5.91,4.79-10.7,10.7-10.7h188.4
			c5.91,0,10.7,4.79,10.7,10.7v107.77C531.67,326.05,526.88,330.84,520.97,330.84z"/>
			<path id="XMLID_404_" class="st6" d="M514.24,330.84H322.78c-5.07,0-9.18-4.11-9.18-9.18V210.83c0-5.07,4.11-9.18,9.18-9.18
			h191.46c5.07,0,9.18,4.11,9.18,9.18v110.83C523.42,326.73,519.31,330.84,514.24,330.84z"/>
			<path id="XMLID_429_" class="st10" d="M514.92,217.79v94.78c0,5.05-4.09,9.12-9.16,9.12H330.99c-5.06,0-9.16-4.08-9.16-9.12
			v-94.78c0-5.05,4.1-9.12,9.16-9.12h174.77C510.83,208.67,514.92,212.75,514.92,217.79z"/>
			<path id="XMLID_411_" class="st9" d="M450.63,331.15l-38.87,21.31c-1.42-10.9-5.43-17.6-7.7-20.62l-0.23-0.69H450.63z"/>
			<path id="XMLID_422_" class="st5" d="M514.92,284.3v22.45l-193.08-2.07V277.2c3.96-3.22,14.78-11.56,20.21-11.56
			c6.73,0,18.05,15.54,21.72,16.75c3.67,1.22,11.63-8.23,20.19-6.09c8.56,2.13,17.43,10.97,29.36,10.97s22.02-11.88,32.73-7.62
			c10.7,4.27,15.6,9.14,23.54,7.01c7.95-2.13,17.13-14.32,25.69-14.32C502.03,272.34,510.66,278.96,514.92,284.3z"/>
			<path id="XMLID_424_" class="st11" d="M514.92,300.31v12.27c0,5.05-4.09,9.12-9.16,9.12H330.99c-5.06,0-9.16-4.08-9.16-9.12
			v-14.35c3.62-1.51,20.3-7.91,43.77-7.91c26.61,0,127.08,18.28,147.72,10.51C513.88,300.62,514.42,300.45,514.92,300.31z"/>
			<polygon id="XMLID_415_" class="st6" points="436.14,258.94 431.62,247.97 430.07,246.7 427.57,242.37 430.71,243.73 
			432.73,241.8 431.84,239.06 432.81,236 429.74,236.08 430.31,231.74 425.94,233.19 422.55,232.06 419.17,234.22 418.67,234.03 
			418.93,231.68 416.39,232.71 415.98,232.71 415.71,231.57 417.04,229.67 417.26,225.73 420.97,224.64 422.02,223.54 
			423.68,222.77 424.89,217.55 421.75,221.73 419.98,222.28 417.92,222.54 417.92,222.32 415.86,221.33 409.2,221.44 407.61,222.68 
			407.61,223.09 405.52,222.83 403.75,222.28 400.6,218.1 401.82,223.32 403.47,224.09 404.52,225.19 408.73,226.43 409.09,230.03 
			410.56,231.68 410.4,232.42 408.07,231.72 408.7,233.08 406.79,232.71 407.23,234.59 404.62,232.92 401.23,234.05 396.86,232.6 
			397.43,236.94 394.36,236.86 395.33,239.92 394.44,242.66 396.46,244.59 399.05,243.46 396.62,247.69 395.07,248.96 
			390.55,259.93 388.13,264.35 388.32,266.08 389.24,267.48 389.62,265.7 390.01,267.86 391.02,267.04 391.46,264.07 392.9,262.72 
			392.95,264.45 393.67,265.6 394.78,262.38 394.51,260.01 395.21,258.45 399.86,254.79 400.85,249.31 401.49,248.19 404.45,246.92 
			405.62,244.39 406.23,246.95 406.36,252.9 403.73,253.47 404.05,256.77 402.6,258.29 404.05,260.31 404.59,260.3 402.79,273.48 
			403.87,280.24 402.79,282.27 402.9,284.74 400.42,286.14 400.31,291.29 399.23,292.57 400.2,294.4 399.34,296.01 400.31,298.69 
			399.88,305.74 396.76,308.67 394.6,310.49 395.14,312.1 405.91,311.35 405.91,306.09 407.42,298.37 409.79,295.69 409.04,292.79 
			410.44,287.42 409.36,285.49 410.11,283.45 409.79,280.56 412.91,276.27 413.17,274.72 413.24,275.14 416.36,279.43 
			416.04,282.33 416.79,284.37 415.71,286.3 417.11,291.66 416.36,294.56 418.73,297.24 420.24,304.97 420.34,304.96 420.34,310.17 
			431.11,310.92 431.65,309.31 429.5,307.49 426.26,304.45 425.84,297.56 426.81,294.88 425.94,293.27 426.91,291.45 425.84,290.16 
			425.73,285.01 423.25,283.62 423.36,281.15 422.28,279.11 423.36,272.35 421.69,260.15 422.23,260.15 423.28,257.65 
			421.58,256.44 421.26,252.98 420.47,252.95 420.53,244.94 420.89,243.01 422.24,245.93 425.2,247.2 425.83,248.32 426.82,253.8 
			431.48,257.46 432.18,259.02 431.9,261.39 433.01,264.61 433.74,263.46 433.79,261.73 435.23,263.08 435.67,266.05 436.68,266.87 
			437.06,264.71 437.45,266.49 438.37,265.09 438.56,263.36 		"/>
			<ellipse id="XMLID_405_" class="st12" cx="456.44" cy="264.96" rx="11.7" ry="11.65"/>
			<ellipse id="XMLID_418_" class="st12" cx="454.98" cy="235.02" rx="11.7" ry="11.65"/>
			<g id="XMLID_419_">
				<rect id="XMLID_417_" x="471.81" y="226.57" class="st5" width="36.01" height="1.6"/>
				<rect id="XMLID_423_" x="471.81" y="229.88" class="st5" width="36.01" height="1.6"/>
				<rect id="XMLID_425_" x="471.81" y="233.08" class="st5" width="36.01" height="1.6"/>
				<rect id="XMLID_426_" x="471.81" y="236.62" class="st5" width="36.01" height="1.6"/>
			</g>
			<g id="XMLID_428_">
				<rect id="XMLID_433_" x="471.81" y="256.04" class="st5" width="36.01" height="1.6"/>
				<rect id="XMLID_432_" x="471.81" y="259.36" class="st5" width="36.01" height="1.6"/>
				<rect id="XMLID_431_" x="471.81" y="262.56" class="st5" width="36.01" height="1.6"/>
				<rect id="XMLID_430_" x="471.81" y="266.1" class="st5" width="36.01" height="1.6"/>
			</g>
			<polygon id="XMLID_420_" class="st5" points="455.29,226 449.44,234.68 454.14,236.39 450.82,243.13 459.19,235.59 455.18,233.31 
			459.3,228.39 		"/>
			<polygon id="XMLID_421_" class="st5" points="454.49,257.13 450.82,259.87 451.85,261.53 453.11,261.36 453.68,262.21 
			452.77,265.93 456.32,271.58 462.23,271.07 463.32,266.21 459.25,261.47 455.86,261.3 455.12,260.39 456.15,259.01 		"/>
			<path id="XMLID_427_" class="st5" d="M383.8,230.6h-44.96c-3.12,0-5.66-2.52-5.66-5.64l0,0c0-3.11,2.53-5.64,5.66-5.64h44.96
			c3.13,0,5.66,2.52,5.66,5.64l0,0C389.46,228.08,386.92,230.6,383.8,230.6z"/>
		</g>
		<g id="XMLID_504_">
			<path id="XMLID_448_" class="st13" d="M541.58,358.58c-6.85-2.07-14.24,2.24-16.49,9.63c-2.25,7.39,1.48,15.06,8.33,17.13
			c6.85,2.07,14.24-2.24,16.49-9.63C552.16,368.32,548.43,360.65,541.58,358.58z M535.24,380.61c-4.42-1.34-6.83-6.29-5.38-11.06
			c1.45-4.77,6.22-7.55,10.64-6.21c4.42,1.34,6.83,6.29,5.38,11.06C544.43,379.17,539.66,381.95,535.24,380.61z"/>
			<path id="XMLID_185_" class="st13" d="M529.18,397.48h-17.9c-5.97,0-10.81-4.84-10.81-10.81V357.5h39.53v29.17
			C539.99,392.64,535.15,397.48,529.18,397.48z"/>
			<ellipse id="XMLID_400_" class="st9" cx="520.15" cy="357.95" rx="19.69" ry="7.69"/>
		</g>
		<g id="XMLID_183_">
			<path id="XMLID_472_" class="st4" d="M245.1,142.52H78.09c-6.62,0-11.98-5.36-11.98-11.98V65.9c0-6.62,5.36-11.98,11.98-11.98
			H245.1c6.62,0,11.98,5.36,11.98,11.98v64.65C257.08,137.16,251.72,142.52,245.1,142.52z"/>
			<path id="XMLID_414_" class="st10" d="M240.47,136.44H71.81c-6.16,0-11.16-4.99-11.16-11.16v-66.3c0-6.16,4.99-11.16,11.16-11.16
			h168.66c6.16,0,11.16,4.99,11.16,11.16v66.3C251.63,131.45,246.64,136.44,240.47,136.44z"/>
			<path id="XMLID_450_" class="st14" d="M125.67,125.15H82.84c-5.03,0-9.1-4.08-9.1-9.1V66.93c0-5.03,4.08-9.1,9.1-9.1h42.84
			c5.03,0,9.1,4.08,9.1,9.1v49.12C134.78,121.07,130.7,125.15,125.67,125.15z"/>
			<path id="XMLID_449_" class="st14" d="M199.96,77.59l-42.97,0.28c0,0-2.88-5.77-0.92-7.55c7.77-7.05,43.89-2.71,43.89-2.71V77.59z
			"/>
			<path id="XMLID_463_" class="st15" d="M131.9,75.94c0,0-0.26-4.56-2.69-6.42l-3.44,1.27l3.16-3.26l-3.98-4.29
			c0,0-13.58-0.49-15.22,12.61l-2.63,4.15c-1.14-0.35-2.37-0.64-3.71-0.83c-11.47-1.66-16.86,4.62-16.86,4.62l-3.19-5.25l-3.56,5.54
			l0.34,18.7l18.49-9.53l-0.03,6.3l-15.16,8.48l-0.04,9.08l31.1,0.15c0,0,5.2-11.94,4.81-20.27c-0.25-5.45-2.09-10.67-6.52-14.1
			l2.51-4.12c2.45-0.56,8.01-0.92,12.72,5.44l3.46-6.11l-3.28-1.58L131.9,75.94z"/>
			<path id="XMLID_412_" class="st16" d="M234.63,78.46h-73.9c-3.07,0-5.56-2.48-5.56-5.54l0,0c0-3.06,2.49-5.54,5.56-5.54h73.9
			c3.07,0,5.56,2.48,5.56,5.54l0,0C240.18,75.98,237.7,78.46,234.63,78.46z"/>
			<rect id="XMLID_467_" x="156.14" y="94.09" class="st4" width="83.72" height="3.58"/>
			<rect id="XMLID_466_" x="156.14" y="102.56" class="st4" width="83.72" height="3.58"/>
			<rect id="XMLID_465_" x="156.14" y="111.36" class="st4" width="83.72" height="3.58"/>
		</g>
		<g id="XMLID_476_">
			<path id="XMLID_477_" class="st9" d="M497.64,174.91h-142c-8.3,0-15.03-6.73-15.03-15.03V61.08h157.03
			c8.3,0,15.03,6.73,15.03,15.03v83.78C512.67,168.19,505.94,174.91,497.64,174.91z"/>
			<path id="XMLID_402_" class="st4" d="M489.66,167.14H345.69c-8.3,0-15.03-6.73-15.03-15.03V69.68c0-8.3,6.73-15.03,15.03-15.03
			h143.97c8.3,0,15.03,6.73,15.03,15.03v82.43C504.69,160.41,497.96,167.14,489.66,167.14z"/>
			<ellipse id="XMLID_413_" class="st14" cx="371.08" cy="110.78" rx="30.19" ry="30.08"/>
			<path id="XMLID_475_" class="st15" d="M382.52,127.26c-1.19,0-2.21,0.74-2.62,1.78h-3.03V76.56l-6.03-8.67l-6.25,8.67v52.48h-2.73
			c-0.42-1.04-1.43-1.78-2.62-1.78c-1.56,0-2.83,1.26-2.83,2.82c0,1.56,1.27,2.82,2.83,2.82c0.88,0,1.66-0.41,2.18-1.04h6.08v13.31
			h-1.67v4.78h8.93v-4.78h-1.79v-13.31h7.39c0.52,0.63,1.3,1.04,2.18,1.04c1.56,0,2.83-1.26,2.83-2.82
			C385.34,128.52,384.08,127.26,382.52,127.26z"/>
			<path id="XMLID_470_" class="st14" d="M456.14,88.8l-42.97,0.28c0,0-2.88-5.77-0.92-7.55c7.77-7.05,43.89-2.71,43.89-2.71V88.8z" />
			<path id="XMLID_469_" class="st16" d="M490.8,89.67h-73.9c-3.07,0-5.56-2.48-5.56-5.54l0,0c0-3.06,2.49-5.54,5.56-5.54h73.9
			c3.07,0,5.56,2.48,5.56,5.54l0,0C496.36,87.19,493.87,89.67,490.8,89.67z"/>
			<rect id="XMLID_461_" x="412.32" y="105.3" class="st14" width="83.72" height="3.58"/>
			<rect id="XMLID_392_" x="412.32" y="113.77" class="st14" width="83.72" height="3.58"/>
			<rect id="XMLID_184_" x="412.32" y="122.57" class="st14" width="83.72" height="3.58"/>
		</g>
		<g id="XMLID_462_">
			<path id="XMLID_487_" class="st4" d="M710.1,292.29H595.76c-6.72,0-12.17-5.45-12.17-12.17V121.1c0-6.72,5.45-12.17,12.17-12.17
			H710.1c6.72,0,12.17,5.45,12.17,12.17v159.03C722.26,286.84,716.82,292.29,710.1,292.29z"/>
			<path id="XMLID_468_" class="st10" d="M704.95,284.23H589.62c-5.83,0-10.55-4.72-10.55-10.55V117.46
			c0-5.83,4.72-10.55,10.55-10.55h115.33c5.83,0,10.55,4.72,10.55,10.55v156.22C715.5,279.51,710.78,284.23,704.95,284.23z"/>
			<path id="XMLID_478_" class="st14" d="M677.23,192.65h-62.9c-5.26,0-9.52-4.26-9.52-9.52v-51.35c0-5.26,4.26-9.52,9.52-9.52h62.9
			c5.26,0,9.52,4.26,9.52,9.52v51.35C686.75,188.39,682.49,192.65,677.23,192.65z"/>
			<path id="XMLID_485_" class="st15" d="M678.26,152.8c0,0-12.68-11.98-12.36-25.27l-20.45-1.94v0l-0.02,0l-0.02,0v0l-20.45,1.94
			c0.33,13.28-12.36,25.27-12.36,25.27c11.16,31.45,32,37.04,32.8,37.24v0.01c0,0,0.02,0,0.02,0c0,0,0.02,0,0.02,0v-0.01
			C646.26,189.83,667.1,184.24,678.26,152.8z"/>
			<path id="XMLID_499_" class="st3" d="M664.25,155.39c0.02-0.02,0.04-0.03,0.06-0.05h-0.12c-1.55-1.41-19.86-17.3-37.95,0h-0.12
			c0,0,0.02,0.02,0.06,0.05c-0.02,0.02-0.04,0.03-0.06,0.05h0.12c1.55,1.41,19.86,17.3,37.95,0h0.12
			C664.31,155.44,664.29,155.42,664.25,155.39z"/>
			<path id="XMLID_508_" class="st17" d="M650.66,155.52c0,2.86-2.33,5.18-5.2,5.18c-2.87,0-5.2-2.32-5.2-5.18
			c0-2.86,2.33-5.18,5.2-5.18C648.33,150.34,650.66,152.66,650.66,155.52z"/>
			<path id="XMLID_481_" class="st14" d="M647.3,219.41l-42.97,0.28c0,0-2.88-5.77-0.92-7.55c7.77-7.05,43.89-2.71,43.89-2.71V219.41
			z"/>
			<path id="XMLID_480_" class="st16" d="M681.96,220.28h-73.91c-3.07,0-5.56-2.48-5.56-5.54l0,0c0-3.06,2.49-5.54,5.56-5.54h73.91
			c3.07,0,5.56,2.48,5.56,5.54l0,0C687.52,217.8,685.03,220.28,681.96,220.28z"/>
			<rect id="XMLID_474_" x="604.23" y="231.18" class="st4" width="83.72" height="3.58"/>
			<rect id="XMLID_473_" x="604.23" y="239.65" class="st4" width="83.72" height="3.58"/>
			<rect id="XMLID_471_" x="604.23" y="248.45" class="st4" width="83.72" height="3.58"/>
		</g>
		<path id="XMLID_409_" class="st18" d="M237.25,449.94c0,0,51.75,2.74,95.75,9.21S388,500,388,500H281.5
		C281.5,500,236.75,465.38,237.25,449.94z"/>
		<path id="XMLID_397_" class="st8" d="M336.7,408.68c0,0,4.36,6.86,27.98,1.14c23.63-5.71,22.25-17.37,20.41-19.42
		c-1.83-2.06-5.51-7.77-16.97-7.77C356.66,382.64,336.24,406.1,336.7,408.68z"/>
		<path id="XMLID_398_" class="st4" d="M141.35,298.24c0,0-14.91,68.25-22.56,153.4h146.5c0,0-9.27-148.01-46.49-166.81
		C152.43,251.32,141.35,298.24,141.35,298.24z"/>
		<path id="XMLID_451_" class="st19" d="M251.96,224.94c0,0-3.57,27.16-12.23,31.73c-2.95,1.55-6.5,2.4-9.91,2.84
		c-6.65,0.87-12.77,0.2-12.77,0.2l-4.22,12.17l-5.47,15.76h-41.02l7.49-37.28l2.05-10.18l13.15-65.51c0,0,19.62-2.79,39.5,2.8
		c0,0,13.25,4.82,15.03,18.53c1.79,13.71-1.78,19.81,1.28,24.38C247.87,224.94,251.96,224.94,251.96,224.94z"/>
		<path id="XMLID_443_" class="st4" d="M252.46,182.55c-2.8,13.71-21.15,10.41-32.87,13.97c-11.73,3.56-10.19,26.4-18.35,37.06
		c-0.45,0.58-0.93,1.15-1.46,1.69c-8.72,9.32-25.55,12.27-25.55,12.27s-17.59-25.13-15.04-49.25c2.55-24.11,24.72-26.65,24.72-26.65
		c19.77-12.17,35.86-14.26,47.49-11.61C246.46,163.44,254.05,174.81,252.46,182.55z"/>
		<path id="XMLID_444_" class="st20" d="M229.82,259.52c-6.65,0.87-12.77,0.2-12.77,0.2l-4.22,12.17c-1.32,0.38-2.13,0.6-2.13,0.6
		l-36.88-22.13l2.05-10.18c2.8-1.29,21.95-9.64,32.84-2.88c0,0,4.74,17.82,20.19,21.94C229.22,259.33,229.53,259.43,229.82,259.52z" />
		<path id="XMLID_403_" class="st21" d="M174,187.65c-4.9,10.2-4.13,39.45,6.11,45.7c10.25,6.24,17.43-2.14,17.43-2.14
		s0.99,1.75,2.25,4.06c-8.72,9.32-25.55,12.27-25.55,12.27s-17.59-25.13-15.04-49.25c2.55-24.11,24.72-26.65,24.72-26.65
		c19.77-12.17,35.86-14.26,47.49-11.61c-2.61,1.48-7.41,2.83-14.44,3.55c-14.98,1.53-25.69,16.31-25.69,16.31
		S178.89,177.44,174,187.65z"/>
		<ellipse id="XMLID_401_" class="st9" cx="204.94" cy="221.38" rx="18.41" ry="18.66"/>
		<path id="XMLID_189_" class="st13" d="M219.76,221.69c-0.24,5.8-4.56,10.33-9.63,10.12c-5.08-0.21-9-5.08-8.75-10.88
		c0.24-5.8,4.56-10.33,9.63-10.12C216.08,211.02,220,215.89,219.76,221.69z"/>
		<path id="XMLID_445_" class="st9" d="M209.06,205.73l-12.71,2.96l-0.96,0.22c-1.6-15.7-11.16-28.97-15.67-34.46
		c-1.11-1.34-0.57-3.37,1.06-4.01l5.54-2.16c0.83-0.32,1.76-0.2,2.48,0.33C201.25,177.81,209.06,205.73,209.06,205.73z"/>
		<path id="XMLID_190_" class="st18" d="M193.32,221.42c0-9.77,7.76-17.7,17.38-17.81c-1.8-0.59-3.71-0.92-5.7-0.92
		c-10.17,0-18.41,8.35-18.41,18.66c0,10.3,8.24,18.66,18.41,18.66c1.84,0,3.62-0.28,5.3-0.79
		C200.86,238.89,193.32,231.06,193.32,221.42z"/>
		<path id="XMLID_416_" class="st9" d="M218.7,291.06l-5.93,0.55l-71.42,6.64c-12.7-11.51,3.84-24.93,3.84-24.93
		s-16.54-21.08,2.7-28.75c10.62-4.23,33.32,5.2,51.54,14.51c10.33,5.28,19.22,10.53,23.63,13.2c1.91,1.15,3.39,2.91,4.19,4.97
		C229.72,283.54,225.45,290.43,218.7,291.06z"/>
		<path id="XMLID_408_" class="st19" d="M335.21,383.57c0,0,15.42-9.22,20.82-9.73c5.4-0.51,9.77,1.28,14.4,4.1
		c4.63,2.82,1.29,4.87,1.29,4.87s4.37,2.3,6.43,6.66c2.06,4.35-0.77,5.63-0.77,5.63s3.34,3.33-0.26,4.61s-13.37-2.82-13.37-2.82
		s-13.37,14.08-27.76,9.73C321.58,402.26,329.3,388.69,335.21,383.57z"/>
		<path id="XMLID_194_" class="st9" d="M343.79,402.26c-1.53,3.81-4.08,7.16-6.63,9.01c-12.54,9.14-65.14,19.81-88.39,7.62
		c-23.25-12.19-37.4-61.13-39.77-90.19c-1.5-18.54,11.45-36.24,24.94-32.15c0,0,0,0,0.01,0c2.93,0.89,5.87,2.8,8.7,5.94
		c15.9,17.68,33.65,80.43,33.65,80.43s28.13-4.57,52.6-1.52C345.66,383.5,347.13,393.98,343.79,402.26z"/>
		<path id="XMLID_195_" class="st18" d="M212.77,291.61l-71.42,6.64c-12.7-11.51,3.84-24.93,3.84-24.93s-16.54-21.08,2.7-28.75
		c10.62-4.23,33.32,5.2,51.54,14.51c-10.18-1.55-27.23-5.91-25.13-0.98c3.21,7.54,18.58,10.51,26.38,16.91
		c7.8,6.4-38.31,2.74-32.57,7.77c5.73,5.03,38.31,2.51,44.04,7.54C212.6,290.71,212.8,291.14,212.77,291.61z"/>
		<path id="XMLID_502_" class="st6" d="M242.38,453.93c0,0-11.57-7.82-23.5-33.41c-11.93-25.59-7.34-76.78-17.89-95.06
		c-10.55-18.28-28.44-21.02-37.16-26.05c-8.72-5.03-5.51-24.22-7.34-31.08c-1.84-6.86-19.27-17.37-37.62-17.37
		c-12.52,0-19.02,1.28-22.78,4.13c-1.75,1.32-2.92,2.98-3.83,5.01c-0.17,0.4-0.36,0.8-0.52,1.21c-0.11,0.24-0.22,0.48-0.32,0.72
		c-0.19,0.44-0.39,0.89-0.57,1.33C53,351.7,79.87,452.05,79.87,452.05s4.47,31.26,14.53,47.95h196.3
		C290.69,500,276.74,464.16,242.38,453.93z"/>
		<path id="XMLID_506_" class="st22" d="M298.88,500c0,0-14.25-17.31-22.25-22.41c-7.56-4.82-44.79-26.1-48.88-28.43l-19.96-45.5
		l-12.39-76.32l-16.52-17.37l-21.56-8.23l-8.26-38.85l-23.86-7.77l-29.2-0.44c-1.75,1.32-2.92,2.98-3.83,5.01
		c-0.28,0.64-0.57,1.28-0.84,1.93c-0.19,0.44-0.39,0.89-0.57,1.33c9.18,0.27,43.57,1.6,49.12,6.34c6.42,5.48,2.29,35.19,11.47,40.67
		c9.18,5.48,28.9,7.77,35.78,20.57c6.88,12.8,9.18,94.6,23.86,111.51c3.65,4.2,6.76,7.31,9.38,9.6c0,0,25.25,29.18,41,36.78
		s15.5,11.58,15.5,11.58H298.88z"/>
		<path id="XMLID_193_" class="st22" d="M213.75,500H93.25c0,0-53.18-122.36-1.91-238.37c0.19-0.44,10.02-2.84,10.02-2.84
		s-15.6,27.88-11.93,43.87c3.67,16,11.01,11.88,3.67,55.76c-7.34,43.87,5.51,60.33,44.96,69.01
		C163.14,432.94,204.62,492.54,213.75,500z"/>
		<path id="XMLID_399_" class="st18" d="M343.79,402.26c-1.53,3.81-4.08,7.16-6.63,9.01c-12.54,9.14-65.14,19.81-88.39,7.62
		c-23.25-12.19-37.4-61.13-39.77-90.19c-1.5-18.54,11.45-36.24,24.94-32.15c-5.33,5.08-17.74,19.75-12.4,42.5
		c6.73,28.65,21.1,67.03,33.03,72.82c11.93,5.79,73.4,4.57,86.25-7.31C342.05,403.44,343.02,402.69,343.79,402.26z"/>
		<path id="XMLID_410_" class="st18" d="M199.37,205.01l-3.02,3.67l-0.96,0.22c-1.6-15.7-11.16-28.97-15.67-34.46
		c-1.11-1.34-0.57-3.37,1.06-4.01C197.39,187.19,199.37,205.01,199.37,205.01z"/>
		<path id="XMLID_507_" class="st23" d="M276.25,473.2c-18.51-13.67-33.14-21.56-33.14-21.56s-12.39-5.94-24.31-31.53
		c-11.93-25.59-7.34-76.78-17.89-95.06c-10.55-18.28-28.44-21.02-37.16-26.05c-8.72-5.03-5.51-24.22-7.34-31.08
		c-1.83-6.86-19.27-17.37-37.62-17.37s-23.75,2.74-26.61,9.14c-0.28,0.64-0.57,1.28-0.84,1.93c0.07,0.02,0.16,0.04,0.23,0.05
		c0,0,42.21-2.44,51.38,4.87c9.18,7.31,1.84,32.9,14.07,40.22c12.23,7.31,31.8,13.41,35.47,22.55c3.67,9.14,9.18,89.57,24.47,110.9
		c0,0,10.14,15.5,33.12,31.71c22.98,16.22,26.9,19.48,32.64,28.07H299C299,500,294.77,486.88,276.25,473.2z"/>
		<path id="XMLID_192_" class="st24" d="M385.1,390.4c0,0,9.41-8.61,41.49-3.85c32.08,4.77,65.91-5.56,56.81-36.57"/>
		<path id="XMLID_479_" class="st20" d="M368,380.79l-13.67-1C354.33,379.79,360,373.82,368,380.79z"/>
		<path id="XMLID_482_" class="st20" d="M373.67,389.42l-15-3.98C358.67,385.44,366.67,381.45,373.67,389.42z"/>
		<path id="XMLID_483_" class="st20" d="M374,394.07l-10.33-2.66C363.67,391.42,369.33,388.76,374,394.07z"/>
	</g>
</svg>
