<?xml version="1.0" encoding="utf-8"?>
<!-- Generator: Adobe Illustrator 23.1.0, SVG Export Plug-In . SVG Version: 6.00 Build 0)  -->
<svg version="1.1" xmlns="http://www.w3.org/2000/svg" xmlns:xlink="http://www.w3.org/1999/xlink" x="0px" y="0px"
	 viewBox="0 0 750 500" style="enable-background:new 0 0 750 500;" xml:space="preserve">
<style type="text/css">
	.st0{fill:#F1F1F2;}
	.st1{fill:#E6E6E7;}
	.st2{fill:#D2DDFC;}
	.st3{fill:#00519A;}
	.st4{fill:#6B89C6;}
	.st5{fill:#224577;}
	.st6{fill:#B8C9FF;}
	.st7{fill:#12355E;}
	.st8{fill:#132F5B;}
	.st9{fill:#FFBC41;}
	.st10{fill:#9DB3EA;}
	.st11{fill:#EBF3FF;}
	.st12{fill:#24426D;}
	.st13{fill:#E6EDFC;}
	.st14{fill:#FF504B;}
	.st15{fill:none;stroke:#6B89C6;stroke-width:3;stroke-miterlimit:10;}
	.st16{fill:#FF8F0A;}
	.st17{fill:#0C2344;}
	.st18{fill:#FFA067;}
	.st19{fill:#DD8457;}
	.st20{fill:#044372;}
	.st21{fill:#1C3E66;}
	.st22{fill:#4D82C1;}
	.st23{fill:none;stroke:#224577;stroke-width:4;stroke-linecap:round;stroke-miterlimit:10;}
</style>
<g id="BACKGROUND">
	<rect id="XMLID_391_" class="st0" width="750" height="500"/>
</g>
<g id="OBJECT">
	<g id="XMLID_394_">
		<rect id="XMLID_505_" y="419.58" class="st1" width="750" height="80.42"/>
		<g id="XMLID_492_">
			<path id="XMLID_491_" class="st2" d="M462.73,236.58h-4.45v-4.45c0-1.07-0.87-1.94-1.94-1.94c-1.07,0-1.94,0.87-1.94,1.94v4.45
				h-4.45c-1.07,0-1.94,0.87-1.94,1.94c0,1.07,0.87,1.94,1.94,1.94h4.45v4.45c0,1.07,0.87,1.94,1.94,1.94
				c1.07,0,1.94-0.87,1.94-1.94v-4.45h4.45c1.07,0,1.94-0.87,1.94-1.94C464.67,237.44,463.8,236.58,462.73,236.58z"/>
			<path id="XMLID_489_" class="st2" d="M63.01,283.98h-5.03v-5.03c0-1.21-0.98-2.19-2.19-2.19c-1.21,0-2.19,0.98-2.19,2.19v5.03
				h-5.03c-1.21,0-2.19,0.98-2.19,2.19c0,1.21,0.98,2.19,2.19,2.19h5.03v5.03c0,1.21,0.98,2.19,2.19,2.19
				c1.21,0,2.19-0.98,2.19-2.19v-5.03h5.03c1.21,0,2.19-0.98,2.19-2.19C65.2,284.96,64.22,283.98,63.01,283.98z"/>
			<path id="XMLID_495_" class="st2" d="M40.36,135.96h-5.03v-5.03c0-1.21-0.98-2.19-2.19-2.19c-1.21,0-2.19,0.98-2.19,2.19v5.03
				h-5.03c-1.21,0-2.19,0.98-2.19,2.19c0,1.21,0.98,2.19,2.19,2.19h5.03v5.03c0,1.21,0.98,2.19,2.19,2.19
				c1.21,0,2.19-0.98,2.19-2.19v-5.03h5.03c1.21,0,2.19-0.98,2.19-2.19C42.55,136.94,41.57,135.96,40.36,135.96z"/>
			<path id="XMLID_496_" class="st2" d="M591,63.63h-5.03V58.6c0-1.21-0.98-2.19-2.19-2.19c-1.21,0-2.19,0.98-2.19,2.19v5.03h-5.03
				c-1.21,0-2.19,0.98-2.19,2.19c0,1.21,0.98,2.19,2.19,2.19h5.03v5.03c0,1.21,0.98,2.19,2.19,2.19c1.21,0,2.19-0.98,2.19-2.19V68
				H591c1.21,0,2.19-0.98,2.19-2.19C593.19,64.61,592.21,63.63,591,63.63z"/>
			<path id="XMLID_464_" class="st2" d="M567.4,306h-3.96v-3.96c0-0.95-0.77-1.72-1.72-1.72c-0.95,0-1.72,0.77-1.72,1.72V306h-3.96
				c-0.95,0-1.72,0.77-1.72,1.72c0,0.95,0.77,1.72,1.72,1.72H560v3.96c0,0.95,0.77,1.72,1.72,1.72c0.95,0,1.72-0.77,1.72-1.72v-3.96
				h3.96c0.95,0,1.72-0.77,1.72-1.72C569.12,306.77,568.35,306,567.4,306z"/>
			<path id="XMLID_490_" class="st2" d="M290.99,185.13h-4.45v-4.45c0-1.07-0.87-1.94-1.94-1.94s-1.94,0.87-1.94,1.94v4.45h-4.45
				c-1.07,0-1.94,0.87-1.94,1.94c0,1.07,0.87,1.94,1.94,1.94h4.45v4.45c0,1.07,0.87,1.94,1.94,1.94s1.94-0.87,1.94-1.94V189h4.45
				c1.07,0,1.94-0.87,1.94-1.94C292.93,186,292.06,185.13,290.99,185.13z"/>
			<g>
				<path id="XMLID_498_" class="st2" d="M665.32,335.13h-4.45v-4.45c0-1.07-0.87-1.94-1.94-1.94c-1.07,0-1.94,0.87-1.94,1.94v4.45
					h-4.45c-1.07,0-1.94,0.87-1.94,1.94c0,1.07,0.87,1.94,1.94,1.94H657v4.45c0,1.07,0.87,1.94,1.94,1.94
					c1.07,0,1.94-0.87,1.94-1.94V339h4.45c1.07,0,1.94-0.87,1.94-1.94C667.26,336,666.39,335.13,665.32,335.13z"/>
			</g>
			<path id="XMLID_486_" class="st2" d="M282.85,281.47c0,3.98-3.22,7.2-7.2,7.2c-3.98,0-7.2-3.22-7.2-7.2s3.22-7.2,7.2-7.2
				C279.63,274.27,282.85,277.49,282.85,281.47z"/>
			<path id="XMLID_494_" class="st2" d="M78.76,204c0,3.18-2.58,5.76-5.76,5.76s-5.76-2.58-5.76-5.76c0-3.18,2.58-5.76,5.76-5.76
				S78.76,200.82,78.76,204z"/>
			<path id="XMLID_509_" class="st2" d="M302.52,86c0,3.18-2.58,5.76-5.76,5.76c-3.18,0-5.76-2.58-5.76-5.76
				c0-3.18,2.58-5.76,5.76-5.76C299.94,80.24,302.52,82.82,302.52,86z"/>
			<path id="XMLID_497_" class="st2" d="M539.21,139.56c0,3.18-2.58,5.76-5.76,5.76c-3.18,0-5.76-2.58-5.76-5.76
				c0-3.18,2.58-5.76,5.76-5.76C536.63,133.8,539.21,136.38,539.21,139.56z"/>
			<path id="XMLID_510_" class="st2" d="M718.76,332c0,3.18-2.58,5.76-5.76,5.76c-3.18,0-5.76-2.58-5.76-5.76
				c0-3.18,2.58-5.76,5.76-5.76C716.18,326.24,718.76,328.82,718.76,332z"/>
			<path id="XMLID_493_" class="st2" d="M711.26,72.5c0,3.18-2.58,5.76-5.76,5.76c-3.18,0-5.76-2.58-5.76-5.76
				c0-3.18,2.58-5.76,5.76-5.76C708.68,66.74,711.26,69.32,711.26,72.5z"/>
		</g>
	</g>
	<g id="XMLID_488_">
		<g id="XMLID_191_">
			<polygon id="XMLID_514_" class="st3" points="602.78,374.15 602.14,499.99 276.01,499.99 189.25,431.54 			"/>
			<polygon id="XMLID_513_" class="st4" points="629.18,350.91 630,364.83 512.2,443.88 131.66,433.48 127.56,422.02 			"/>
			<polygon id="XMLID_512_" class="st5" points="513.77,499.19 514.18,442.29 195.68,432.27 282.64,499.59 			"/>
			<polygon id="XMLID_511_" class="st6" points="629.11,351.59 512.2,430.15 127.56,422.02 237.29,348.32 			"/>
			<g id="XMLID_503_">
				<polygon id="XMLID_406_" class="st7" points="271.01,353.99 355.29,353.99 357.4,356.64 342.98,382.4 263.44,382.4 				"/>
				<polygon id="XMLID_407_" class="st5" points="267.41,353.99 355.29,353.99 339.38,382.4 259.84,382.4 				"/>
				<polygon id="XMLID_186_" class="st7" points="270.82,356.83 345.82,356.83 343.55,361.19 270.25,361.56 				"/>
				<polygon id="XMLID_187_" class="st7" points="266.85,364.22 341.84,364.22 339.57,368.57 266.28,368.95 				"/>
				<polygon id="XMLID_188_" class="st7" points="262.87,371.41 337.86,371.41 335.59,375.77 262.3,376.15 				"/>
			</g>
		</g>
		<g id="XMLID_501_">
			<path id="XMLID_393_" class="st8" d="M467.83,370.1h-49.55c0.91-7.04,0.81-13.09,0.13-18.21c-1.42-10.95-5.43-17.67-7.7-20.7
				c-0.95-1.29-1.61-1.92-1.61-1.92h48.17C468.75,344.41,467.83,370.1,467.83,370.1z"/>
			<path id="XMLID_395_" class="st5" d="M461.18,370.1h-49.55c0.91-7.04,0.81-13.09,0.13-18.21c-1.42-10.95-5.43-17.67-7.7-20.7
				c-0.95-1.29-1.61-1.92-1.61-1.92h48.17C462.1,344.41,461.18,370.1,461.18,370.1z"/>
			<path id="XMLID_396_" class="st8" d="M520.97,330.19h-188.4c-5.91,0-10.7-4.79-10.7-10.7V211.22c0-5.91,4.79-10.7,10.7-10.7
				h188.4c5.91,0,10.7,4.79,10.7,10.7v108.27C531.67,325.4,526.88,330.19,520.97,330.19z"/>
			<path id="XMLID_404_" class="st5" d="M514.24,330.19H322.78c-5.07,0-9.18-4.11-9.18-9.18V209.69c0-5.07,4.11-9.18,9.18-9.18
				h191.46c5.07,0,9.18,4.11,9.18,9.18v111.33C523.42,326.08,519.31,330.19,514.24,330.19z"/>
			<path id="XMLID_429_" class="st9" d="M514.92,216.71v95.15c0,5.06-4.09,9.16-9.16,9.16H330.99c-5.06,0-9.16-4.09-9.16-9.16
				v-95.15c0-5.06,4.1-9.16,9.16-9.16h174.77C510.83,207.55,514.92,211.64,514.92,216.71z"/>
			<path id="XMLID_411_" class="st8" d="M450.63,330.5l-38.87,21.39c-1.42-10.95-5.43-17.67-7.7-20.7l-0.23-0.69H450.63z"/>
			<path id="XMLID_422_" class="st4" d="M514.92,283.47V306l-193.08-2.08v-27.57c3.96-3.23,14.78-11.61,20.21-11.61
				c6.73,0,18.05,15.6,21.72,16.82c3.67,1.23,11.63-8.26,20.19-6.11c8.56,2.14,17.43,11.01,29.36,11.01s22.02-11.93,32.73-7.65
				c10.7,4.28,15.6,9.18,23.54,7.04c7.95-2.14,17.13-14.38,25.69-14.38C502.03,271.47,510.66,278.11,514.92,283.47z"/>
			<path id="XMLID_424_" class="st10" d="M514.92,299.54v12.31c0,5.06-4.09,9.16-9.16,9.16H330.99c-5.06,0-9.16-4.09-9.16-9.16
				v-14.41c3.62-1.51,20.3-7.94,43.77-7.94c26.61,0,127.08,18.35,147.72,10.55C513.88,299.86,514.42,299.68,514.92,299.54z"/>
			<polygon id="XMLID_415_" class="st5" points="436.14,258.01 431.62,247 430.07,245.73 427.57,241.38 430.71,242.75 
				432.73,240.81 431.84,238.06 432.81,234.99 429.74,235.07 430.31,230.71 425.94,232.16 422.55,231.03 419.17,233.2 
				418.67,233.01 418.93,230.65 416.39,231.68 415.98,231.69 415.71,230.54 417.04,228.63 417.26,224.68 420.97,223.59 
				422.02,222.48 423.68,221.71 424.89,216.47 421.75,220.66 419.98,221.21 417.92,221.48 417.92,221.25 415.86,220.26 
				409.2,220.37 407.61,221.62 407.61,222.03 405.52,221.77 403.75,221.21 400.6,217.02 401.82,222.26 403.47,223.04 404.52,224.14 
				408.73,225.38 409.09,229 410.56,230.65 410.4,231.39 408.07,230.69 408.7,232.05 406.79,231.68 407.23,233.57 404.62,231.9 
				401.23,233.03 396.86,231.57 397.43,235.93 394.36,235.85 395.33,238.92 394.44,241.67 396.46,243.61 399.05,242.48 
				396.62,246.73 395.07,248 390.55,259 388.13,263.45 388.32,265.19 389.24,266.58 389.62,264.8 390.01,266.97 391.02,266.15 
				391.46,263.16 392.9,261.81 392.95,263.55 393.67,264.7 394.78,261.47 394.51,259.09 395.21,257.52 399.86,253.85 400.85,248.35 
				401.49,247.22 404.45,245.95 405.62,243.41 406.23,245.98 406.36,251.95 403.73,252.52 404.05,255.83 402.6,257.37 
				404.05,259.39 404.59,259.38 402.79,272.61 403.87,279.39 402.79,281.44 402.9,283.92 400.42,285.32 400.31,290.49 
				399.23,291.78 400.2,293.61 399.34,295.23 400.31,297.92 399.88,305 396.76,307.93 394.6,309.77 395.14,311.38 405.91,310.63 
				405.91,305.35 407.42,297.6 409.79,294.9 409.04,291.99 410.44,286.61 409.36,284.67 410.11,282.62 409.79,279.72 412.91,275.41 
				413.17,273.86 413.24,274.28 416.36,278.59 416.04,281.49 416.79,283.54 415.71,285.48 417.11,290.86 416.36,293.77 
				418.73,296.46 420.24,304.22 420.34,304.21 420.34,309.44 431.11,310.2 431.65,308.58 429.5,306.75 426.26,303.7 425.84,296.79 
				426.81,294.09 425.94,292.48 426.91,290.65 425.84,289.36 425.73,284.19 423.25,282.79 423.36,280.31 422.28,278.26 
				423.36,271.48 421.69,259.23 422.23,259.23 423.28,256.72 421.58,255.51 421.26,252.04 420.47,252.01 420.53,243.96 
				420.89,242.02 422.24,244.96 425.2,246.23 425.83,247.35 426.82,252.86 431.48,256.53 432.18,258.1 431.9,260.48 433.01,263.71 
				433.74,262.55 433.79,260.82 435.23,262.17 435.67,265.16 436.68,265.98 437.06,263.81 437.45,265.59 438.37,264.19 
				438.56,262.46 			"/>
			
				<ellipse id="XMLID_405_" transform="matrix(0.925 -0.38 0.38 0.925 -66.099 193.2358)" class="st11" cx="456.44" cy="264.05" rx="11.7" ry="11.7"/>
			
				<ellipse id="XMLID_418_" transform="matrix(0.2309 -0.973 0.973 0.2309 122.2437 622.6597)" class="st11" cx="454.98" cy="234" rx="11.7" ry="11.7"/>
			<g id="XMLID_419_">
				<rect id="XMLID_417_" x="471.81" y="225.52" class="st4" width="36.01" height="1.61"/>
				<rect id="XMLID_423_" x="471.81" y="228.84" class="st4" width="36.01" height="1.61"/>
				<rect id="XMLID_425_" x="471.81" y="232.05" class="st4" width="36.01" height="1.61"/>
				<rect id="XMLID_426_" x="471.81" y="235.61" class="st4" width="36.01" height="1.61"/>
			</g>
			<g id="XMLID_428_">
				<rect id="XMLID_433_" x="471.81" y="255.11" class="st4" width="36.01" height="1.61"/>
				<rect id="XMLID_432_" x="471.81" y="258.43" class="st4" width="36.01" height="1.61"/>
				<rect id="XMLID_431_" x="471.81" y="261.65" class="st4" width="36.01" height="1.61"/>
				<rect id="XMLID_430_" x="471.81" y="265.2" class="st4" width="36.01" height="1.61"/>
			</g>
			<polygon id="XMLID_420_" class="st4" points="455.29,224.94 449.44,233.66 454.14,235.38 450.82,242.15 459.19,234.58 
				455.18,232.28 459.3,227.35 			"/>
			<polygon id="XMLID_421_" class="st4" points="454.49,256.2 450.82,258.95 451.85,260.61 453.11,260.44 453.68,261.3 
				452.77,265.03 456.32,270.71 462.23,270.19 463.32,265.32 459.25,260.56 455.86,260.38 455.12,259.47 456.15,258.09 			"/>
			<path id="XMLID_427_" class="st4" d="M383.8,229.57h-44.96c-3.12,0-5.66-2.53-5.66-5.66l0,0c0-3.12,2.53-5.66,5.66-5.66h44.96
				c3.13,0,5.66,2.53,5.66,5.66l0,0C389.46,227.04,386.92,229.57,383.8,229.57z"/>
		</g>
		<g id="XMLID_504_">
			<path id="XMLID_448_" class="st12" d="M541.58,358.04c-6.85-2.08-14.24,2.25-16.49,9.66c-2.25,7.42,1.48,15.12,8.33,17.2
				c6.85,2.08,14.24-2.25,16.49-9.66C552.16,367.82,548.43,360.12,541.58,358.04z M535.24,380.15c-4.42-1.34-6.83-6.31-5.38-11.1
				c1.45-4.79,6.22-7.58,10.64-6.24c4.42,1.34,6.83,6.31,5.38,11.1C544.43,378.7,539.66,381.5,535.24,380.15z"/>
			<path id="XMLID_185_" class="st12" d="M525.65,397.09H514.8c-7.92,0-14.34-6.42-14.34-14.34v-25.81h39.53v25.81
				C539.99,390.67,533.57,397.09,525.65,397.09z"/>
			<ellipse id="XMLID_400_" class="st8" cx="520.15" cy="357.41" rx="19.69" ry="7.72"/>
		</g>
	</g>
	<g id="XMLID_500_">
		<g id="XMLID_183_">
			<path id="XMLID_472_" class="st3" d="M244,141.15H79.19c-7.23,0-13.08-5.86-13.08-13.08V65.29c0-7.23,5.86-13.08,13.08-13.08H244
				c7.23,0,13.08,5.86,13.08,13.08v62.78C257.08,135.29,251.22,141.15,244,141.15z"/>
			<path id="XMLID_414_" class="st9" d="M240.47,135.05H71.81c-6.16,0-11.16-4.99-11.16-11.16V57.26c0-6.16,4.99-11.16,11.16-11.16
				h168.66c6.16,0,11.16,4.99,11.16,11.16v66.64C251.63,130.05,246.64,135.05,240.47,135.05z"/>
			<path id="XMLID_450_" class="st13" d="M124.93,123.71H83.59c-5.44,0-9.85-4.41-9.85-9.85V65.98c0-5.44,4.41-9.85,9.85-9.85h41.34
				c5.44,0,9.85,4.41,9.85,9.85v47.88C134.78,119.3,130.37,123.71,124.93,123.71z"/>
			<path id="XMLID_449_" class="st13" d="M199.96,75.97l-42.97,0.28c0,0-2.88-5.79-0.92-7.58c7.77-7.08,43.89-2.72,43.89-2.72V75.97
				z"/>
			<path id="XMLID_463_" class="st14" d="M131.9,74.31c0,0-0.26-4.58-2.69-6.45l-3.44,1.27l3.16-3.27l-3.98-4.31
				c0,0-13.58-0.49-15.22,12.65l-2.63,4.16c-1.14-0.35-2.37-0.64-3.71-0.83c-11.47-1.66-16.86,4.64-16.86,4.64l-3.19-5.27
				l-3.56,5.56l0.34,18.77l18.49-9.56L98.58,98l-15.16,8.51l-0.04,9.11l31.1,0.15c0,0,5.2-11.99,4.81-20.35
				c-0.25-5.47-2.09-10.71-6.52-14.15l2.51-4.14c2.45-0.56,8.01-0.92,12.72,5.46l3.46-6.13l-3.28-1.59L131.9,74.31z"/>
			<path id="XMLID_412_" class="st15" d="M234.63,76.84h-73.9c-3.07,0-5.56-2.49-5.56-5.56l0,0c0-3.07,2.49-5.56,5.56-5.56h73.9
				c3.07,0,5.56,2.49,5.56,5.56l0,0C240.18,74.35,237.7,76.84,234.63,76.84z"/>
			<rect id="XMLID_467_" x="156.14" y="92.54" class="st3" width="83.72" height="3.6"/>
			<rect id="XMLID_466_" x="156.14" y="101.04" class="st3" width="83.72" height="3.6"/>
			<rect id="XMLID_465_" x="156.14" y="109.87" class="st3" width="83.72" height="3.6"/>
		</g>
		<g id="XMLID_476_">
			<path id="XMLID_477_" class="st8" d="M497.64,173.67h-142c-8.3,0-15.03-6.73-15.03-15.03V59.39h157.03
				c8.3,0,15.03,6.73,15.03,15.03v84.22C512.67,166.94,505.94,173.67,497.64,173.67z"/>
			<path id="XMLID_402_" class="st3" d="M489.66,165.87H345.69c-8.3,0-15.03-6.73-15.03-15.03V67.97c0-8.3,6.73-15.03,15.03-15.03
				h143.97c8.3,0,15.03,6.73,15.03,15.03v82.86C504.69,159.14,497.96,165.87,489.66,165.87z"/>
			
				<ellipse id="XMLID_413_" transform="matrix(0.9883 -0.1528 0.1528 0.9883 -12.3407 57.9762)" class="st13" cx="371.08" cy="109.29" rx="30.19" ry="30.19"/>
			<path id="XMLID_475_" class="st14" d="M382.52,125.83c-1.19,0-2.21,0.74-2.62,1.79h-3.03V74.93l-6.03-8.71l-6.25,8.71v52.69
				h-2.73c-0.42-1.04-1.43-1.79-2.62-1.79c-1.56,0-2.83,1.27-2.83,2.83c0,1.56,1.27,2.83,2.83,2.83c0.88,0,1.66-0.41,2.18-1.04h6.08
				v13.36h-1.67v4.8h8.93v-4.8h-1.79v-13.36h7.39c0.52,0.63,1.3,1.04,2.18,1.04c1.56,0,2.83-1.27,2.83-2.83
				C385.34,127.1,384.08,125.83,382.52,125.83z"/>
			<path id="XMLID_470_" class="st13" d="M456.14,87.22l-42.97,0.28c0,0-2.88-5.79-0.92-7.58c7.77-7.08,43.89-2.72,43.89-2.72V87.22
				z"/>
			<path id="XMLID_469_" class="st15" d="M490.8,88.09h-73.9c-3.07,0-5.56-2.49-5.56-5.56l0,0c0-3.07,2.49-5.56,5.56-5.56h73.9
				c3.07,0,5.56,2.49,5.56,5.56l0,0C496.36,85.61,493.87,88.09,490.8,88.09z"/>
			<rect id="XMLID_461_" x="412.32" y="103.79" class="st13" width="83.72" height="3.6"/>
			<rect id="XMLID_392_" x="412.32" y="112.29" class="st13" width="83.72" height="3.6"/>
			<rect id="XMLID_184_" x="412.32" y="121.12" class="st13" width="83.72" height="3.6"/>
		</g>
		<g id="XMLID_462_">
			<path id="XMLID_487_" class="st3" d="M710.1,291.49H595.76c-6.72,0-12.17-5.45-12.17-12.17V119.6c0-6.72,5.45-12.17,12.17-12.17
				H710.1c6.72,0,12.17,5.45,12.17,12.17v159.73C722.26,286.05,716.82,291.49,710.1,291.49z"/>
			<path id="XMLID_468_" class="st9" d="M704.95,283.4H589.62c-5.83,0-10.55-4.72-10.55-10.55v-156.9c0-5.83,4.72-10.55,10.55-10.55
				h115.33c5.83,0,10.55,4.72,10.55,10.55v156.9C715.5,278.68,710.78,283.4,704.95,283.4z"/>
			<path id="XMLID_478_" class="st13" d="M669.28,191.47h-46.99c-9.65,0-17.47-7.82-17.47-17.47v-35.72
				c0-9.65,7.82-17.47,17.47-17.47h46.99c9.65,0,17.47,7.82,17.47,17.47V174C686.75,183.65,678.93,191.47,669.28,191.47z"/>
			<path id="XMLID_485_" class="st14" d="M678.26,151.47c0,0-12.68-12.03-12.36-25.36l-20.45-1.95v0l-0.02,0l-0.02,0v0l-20.45,1.95
				c0.33,13.33-12.36,25.36-12.36,25.36c11.16,31.57,32,37.18,32.8,37.38v0.01c0,0,0.02,0,0.02,0c0,0,0.02,0,0.02,0v-0.01
				C646.26,188.64,667.1,183.03,678.26,151.47z"/>
			<path id="XMLID_499_" class="st2" d="M664.25,154.07c0.02-0.02,0.04-0.03,0.06-0.05h-0.12c-1.55-1.41-19.86-17.37-37.95,0h-0.12
				c0,0,0.02,0.02,0.06,0.06c-0.02,0.02-0.04,0.03-0.06,0.05h0.12c1.55,1.41,19.86,17.37,37.95,0h0.12
				C664.31,154.12,664.29,154.1,664.25,154.07z"/>
			<path id="XMLID_508_" class="st16" d="M650.66,154.2c0,2.87-2.33,5.2-5.2,5.2c-2.87,0-5.2-2.33-5.2-5.2c0-2.87,2.33-5.2,5.2-5.2
				C648.33,148.99,650.66,151.32,650.66,154.2z"/>
			<path id="XMLID_481_" class="st13" d="M647.3,218.33l-42.97,0.28c0,0-2.88-5.79-0.92-7.58c7.77-7.08,43.89-2.72,43.89-2.72
				V218.33z"/>
			<path id="XMLID_480_" class="st15" d="M681.96,219.21h-73.91c-3.07,0-5.56-2.49-5.56-5.56l0,0c0-3.07,2.49-5.56,5.56-5.56h73.91
				c3.07,0,5.56,2.49,5.56,5.56l0,0C687.52,216.72,685.03,219.21,681.96,219.21z"/>
			<rect id="XMLID_474_" x="604.23" y="230.15" class="st3" width="83.72" height="3.6"/>
			<rect id="XMLID_473_" x="604.23" y="238.65" class="st3" width="83.72" height="3.6"/>
			<rect id="XMLID_471_" x="604.23" y="247.48" class="st3" width="83.72" height="3.6"/>
		</g>
	</g>
	<g id="XMLID_484_">
		<path id="XMLID_409_" class="st17" d="M237.25,449.75c0,0,51.75,2.75,95.75,9.25s55,41,55,41H281.5
			C281.5,500,236.75,465.25,237.25,449.75z"/>
		<path id="XMLID_397_" class="st7" d="M336.7,408.33c0,0,4.36,6.88,27.98,1.15c23.63-5.73,22.25-17.43,20.41-19.5
			c-1.83-2.06-5.51-7.8-16.97-7.8C356.66,382.18,336.24,405.73,336.7,408.33z"/>
		<path id="XMLID_398_" class="st3" d="M141.35,297.47c0,0-14.91,68.51-22.56,153.99h146.5c0,0-9.27-148.58-46.49-167.45
			C152.43,250.37,141.35,297.47,141.35,297.47z"/>
		<path id="XMLID_451_" class="st18" d="M251.96,223.88c0,0-3.57,27.27-12.23,31.86c-2.95,1.56-6.5,2.41-9.91,2.85
			c-6.65,0.87-12.77,0.2-12.77,0.2l-4.22,12.22l-5.47,15.82h-41.02l7.49-37.43l2.05-10.22l13.15-65.76c0,0,19.62-2.8,39.5,2.81
			c0,0,13.25,4.84,15.03,18.6c1.79,13.76-1.78,19.88,1.28,24.47C247.87,223.88,251.96,223.88,251.96,223.88z"/>
		<path id="XMLID_443_" class="st3" d="M252.46,181.33c-2.8,13.76-21.15,10.45-32.87,14.02c-11.73,3.57-10.19,26.5-18.35,37.21
			c-0.45,0.59-0.93,1.16-1.46,1.7c-8.72,9.36-25.55,12.31-25.55,12.31s-17.59-25.22-15.04-49.44c2.55-24.2,24.72-26.76,24.72-26.76
			c19.77-12.21,35.86-14.31,47.49-11.65C246.46,162.15,254.05,173.57,252.46,181.33z"/>
		<path id="XMLID_444_" class="st19" d="M229.82,258.59c-6.65,0.87-12.77,0.2-12.77,0.2l-4.22,12.22c-1.32,0.39-2.13,0.61-2.13,0.61
			l-36.88-22.21l2.05-10.22c2.8-1.29,21.95-9.68,32.84-2.89c0,0,4.74,17.89,20.19,22.02C229.22,258.41,229.53,258.5,229.82,258.59z"
			/>
		<path id="XMLID_403_" class="st20" d="M174,186.45c-4.9,10.24-4.13,39.6,6.11,45.88c10.25,6.27,17.43-2.15,17.43-2.15
			s0.99,1.76,2.25,4.07c-8.72,9.36-25.55,12.31-25.55,12.31s-17.59-25.22-15.04-49.44c2.55-24.2,24.72-26.76,24.72-26.76
			c19.77-12.21,35.86-14.31,47.49-11.65c-2.61,1.49-7.41,2.84-14.44,3.56c-14.98,1.53-25.69,16.37-25.69,16.37
			S178.89,176.2,174,186.45z"/>
		<ellipse id="XMLID_401_" class="st8" cx="204.94" cy="220.32" rx="18.41" ry="18.73"/>
		<path id="XMLID_189_" class="st12" d="M219.76,220.62c-0.24,5.82-4.56,10.37-9.63,10.16c-5.08-0.21-9-5.1-8.75-10.92
			c0.24-5.82,4.56-10.37,9.63-10.16C216.08,209.91,220,214.8,219.76,220.62z"/>
		<path id="XMLID_445_" class="st8" d="M209.06,204.6l-12.71,2.97l-0.96,0.22c-1.6-15.76-11.16-29.09-15.67-34.59
			c-1.11-1.35-0.57-3.39,1.06-4.03l5.54-2.17c0.83-0.32,1.76-0.2,2.48,0.33C201.25,176.58,209.06,204.6,209.06,204.6z"/>
		<path id="XMLID_190_" class="st17" d="M193.32,220.35c0-9.81,7.76-17.77,17.38-17.88c-1.8-0.6-3.71-0.93-5.7-0.93
			c-10.17,0-18.41,8.39-18.41,18.73c0,10.34,8.24,18.73,18.41,18.73c1.84,0,3.62-0.28,5.3-0.8
			C200.86,237.88,193.32,230.03,193.32,220.35z"/>
		<path id="XMLID_416_" class="st8" d="M218.7,290.26l-5.93,0.55l-71.42,6.66c-12.7-11.55,3.84-25.02,3.84-25.02
			s-16.54-21.16,2.7-28.86c10.62-4.25,33.32,5.22,51.54,14.56c10.33,5.3,19.22,10.57,23.63,13.25c1.91,1.16,3.39,2.92,4.19,4.99
			C229.72,282.71,225.45,289.63,218.7,290.26z"/>
		<path id="XMLID_408_" class="st18" d="M335.21,383.12c0,0,15.42-9.25,20.82-9.77c5.4-0.51,9.77,1.29,14.4,4.11
			c4.63,2.83,1.29,4.88,1.29,4.88s4.37,2.31,6.43,6.68c2.06,4.37-0.77,5.66-0.77,5.66s3.34,3.34-0.26,4.63
			c-3.6,1.29-13.37-2.83-13.37-2.83s-13.37,14.14-27.76,9.77C321.58,401.89,329.3,388.26,335.21,383.12z"/>
		<path id="XMLID_194_" class="st8" d="M343.79,401.88c-1.53,3.83-4.08,7.18-6.63,9.05c-12.54,9.18-65.14,19.88-88.39,7.65
			c-23.25-12.24-37.4-61.36-39.77-90.53c-1.5-18.61,11.45-36.38,24.94-32.27c0,0,0,0,0.01,0c2.93,0.89,5.87,2.81,8.7,5.96
			c15.9,17.74,33.65,80.74,33.65,80.74s28.13-4.59,52.6-1.52C345.66,383.06,347.13,393.57,343.79,401.88z"/>
		<path id="XMLID_195_" class="st17" d="M212.77,290.81l-71.42,6.66c-12.7-11.55,3.84-25.02,3.84-25.02s-16.54-21.16,2.7-28.86
			c10.62-4.25,33.32,5.22,51.54,14.56c-10.18-1.56-27.23-5.94-25.13-0.98c3.21,7.57,18.58,10.55,26.38,16.97
			c7.8,6.42-38.31,2.75-32.57,7.8c5.73,5.05,38.31,2.52,44.04,7.57C212.6,289.91,212.8,290.34,212.77,290.81z"/>
		<path id="XMLID_502_" class="st5" d="M242.38,453.75c0,0-11.57-7.85-23.5-33.54c-11.93-25.69-7.34-77.07-17.89-95.42
			c-10.55-18.35-28.44-21.1-37.16-26.15c-8.72-5.05-5.51-24.31-7.34-31.2c-1.84-6.88-19.27-17.43-37.62-17.43
			c-12.52,0-19.02,1.28-22.78,4.15c-1.75,1.32-2.92,2.99-3.83,5.03c-0.17,0.4-0.36,0.81-0.52,1.21c-0.11,0.24-0.22,0.48-0.32,0.72
			c-0.19,0.44-0.39,0.89-0.57,1.33C53,351.13,79.87,451.87,79.87,451.87s4.47,31.38,14.53,48.13h196.3
			C290.69,500,276.74,464.03,242.38,453.75z"/>
		<path id="XMLID_506_" class="st21" d="M298.88,500c0,0-14.25-17.38-22.25-22.5c-7.56-4.84-44.79-26.2-48.88-28.54l-19.96-45.67
			l-12.39-76.61l-16.52-17.43l-21.56-8.26l-8.26-38.99l-23.86-7.8l-29.2-0.44c-1.75,1.32-2.92,2.99-3.83,5.03
			c-0.28,0.64-0.57,1.28-0.84,1.94c-0.19,0.44-0.39,0.89-0.57,1.33c9.18,0.28,43.57,1.61,49.12,6.37
			c6.42,5.51,2.29,35.32,11.47,40.83c9.18,5.51,28.9,7.8,35.78,20.64c6.88,12.85,9.18,94.96,23.86,111.94
			c3.65,4.22,6.76,7.34,9.38,9.63c0,0,25.25,29.29,41,36.92s15.5,11.63,15.5,11.63H298.88z"/>
		<path id="XMLID_193_" class="st21" d="M213.75,500H93.25c0,0-53.18-122.83-1.91-239.29c0.19-0.44,10.02-2.85,10.02-2.85
			s-15.6,27.98-11.93,44.04s11.01,11.93,3.67,55.97c-7.34,44.04,5.51,60.56,44.96,69.27C163.14,432.69,204.62,492.51,213.75,500z"/>
		<path id="XMLID_399_" class="st17" d="M343.79,401.88c-1.53,3.83-4.08,7.18-6.63,9.05c-12.54,9.18-65.14,19.88-88.39,7.65
			c-23.25-12.24-37.4-61.36-39.77-90.53c-1.5-18.61,11.45-36.38,24.94-32.27c-5.33,5.1-17.74,19.83-12.4,42.66
			c6.73,28.76,21.1,67.29,33.03,73.1c11.93,5.81,73.4,4.59,86.25-7.34C342.05,403.07,343.02,402.32,343.79,401.88z"/>
		<path id="XMLID_410_" class="st17" d="M199.37,203.88l-3.02,3.69l-0.96,0.22c-1.6-15.76-11.16-29.09-15.67-34.59
			c-1.11-1.35-0.57-3.39,1.06-4.03C197.39,185.99,199.37,203.88,199.37,203.88z"/>
		<path id="XMLID_507_" class="st22" d="M276.25,473.1c-18.51-13.72-33.14-21.64-33.14-21.64s-12.39-5.96-24.31-31.65
			c-11.93-25.69-7.34-77.07-17.89-95.42c-10.55-18.35-28.44-21.1-37.16-26.15c-8.72-5.05-5.51-24.31-7.34-31.2
			c-1.83-6.88-19.27-17.43-37.62-17.43s-23.75,2.75-26.61,9.18c-0.28,0.64-0.57,1.28-0.84,1.94c0.07,0.02,0.16,0.04,0.23,0.06
			c0,0,42.21-2.45,51.38,4.89s1.84,33.03,14.07,40.37c12.23,7.34,31.8,13.46,35.47,22.64c3.67,9.18,9.18,89.92,24.47,111.32
			c0,0,10.14,15.56,33.12,31.83c22.98,16.28,26.9,19.56,32.64,28.18H299C299,500,294.77,486.83,276.25,473.1z"/>
		<path id="XMLID_192_" class="st23" d="M385.1,389.98c0,0,9.41-8.65,41.49-3.86c32.08,4.79,65.91-5.59,56.81-36.71"/>
		<path id="XMLID_479_" class="st19" d="M368,380.33l-13.67-1C354.33,379.33,360,373.33,368,380.33z"/>
		<path id="XMLID_482_" class="st19" d="M373.67,389l-15-4C358.67,385,366.67,381,373.67,389z"/>
		<path id="XMLID_483_" class="st19" d="M374,393.67L363.67,391C363.67,391,369.33,388.33,374,393.67z"/>
	</g>
</g>
</svg>
